<svg width="40" height="40" viewBox="0 0 40 40" fill="none" xmlns="http://www.w3.org/2000/svg">
<path d="M36.6667 8.08346V27.9001C36.6667 29.5168 35.35 31.0001 33.7333 31.2001L33.2167 31.2668C30.4833 31.6335 26.6333 32.7668 23.5333 34.0668C22.45 34.5168 21.25 33.7001 21.25 32.5168V9.33346C21.25 8.7168 21.6 8.15013 22.15 7.85013C25.2 6.20013 29.8167 4.73346 32.95 4.4668H33.05C35.05 4.4668 36.6667 6.08346 36.6667 8.08346Z" fill="#2A5278"/>
<path d="M17.85 7.85013C14.8 6.20013 10.1833 4.73346 7.04998 4.4668H6.93332C4.93332 4.4668 3.31665 6.08346 3.31665 8.08346V27.9001C3.31665 29.5168 4.63332 31.0001 6.24998 31.2001L6.76665 31.2668C9.49998 31.6335 13.35 32.7668 16.45 34.0668C17.5333 34.5168 18.7333 33.7001 18.7333 32.5168V9.33346C18.7333 8.70013 18.4 8.15013 17.85 7.85013ZM8.33332 12.9001H12.0833C12.7666 12.9001 13.3333 13.4668 13.3333 14.1501C13.3333 14.8501 12.7666 15.4001 12.0833 15.4001H8.33332C7.64998 15.4001 7.08332 14.8501 7.08332 14.1501C7.08332 13.4668 7.64998 12.9001 8.33332 12.9001ZM13.3333 20.4001H8.33332C7.64998 20.4001 7.08332 19.8501 7.08332 19.1501C7.08332 18.4668 7.64998 17.9001 8.33332 17.9001H13.3333C14.0166 17.9001 14.5833 18.4668 14.5833 19.1501C14.5833 19.8501 14.0166 20.4001 13.3333 20.4001Z" fill="#2A5278"/>
</svg>
