<svg width="40" height="40" viewBox="0 0 40 40" fill="none" xmlns="http://www.w3.org/2000/svg">
<path d="M36.6667 27.9001V7.78348C36.6667 5.78349 35.0333 4.30015 33.05 4.46682H32.95C29.45 4.76682 24.1333 6.55015 21.1666 8.41682L20.8833 8.60015C20.4 8.90015 19.6 8.90015 19.1166 8.60015L18.7 8.35015C15.7333 6.50015 10.4333 4.73349 6.93331 4.45015C4.94998 4.28349 3.33331 5.78348 3.33331 7.76682V27.9001C3.33331 29.5001 4.63331 31.0001 6.23331 31.2001L6.71665 31.2668C10.3333 31.7501 15.9166 33.5835 19.1166 35.3335L19.1833 35.3668C19.6333 35.6168 20.35 35.6168 20.7833 35.3668C23.9833 33.6001 29.5833 31.7501 33.2167 31.2668L33.7667 31.2001C35.3667 31.0001 36.6667 29.5001 36.6667 27.9001Z" stroke="#2A5278" stroke-width="2.5" stroke-linecap="round" stroke-linejoin="round"/>
<path d="M20 9.15039V34.1504" stroke="#2A5278" stroke-width="2.5" stroke-linecap="round" stroke-linejoin="round"/>
<path d="M12.9167 14.1504H9.16669" stroke="#2A5278" stroke-width="2.5" stroke-linecap="round" stroke-linejoin="round"/>
<path d="M14.1667 19.1504H9.16669" stroke="#2A5278" stroke-width="2.5" stroke-linecap="round" stroke-linejoin="round"/>
</svg>
