<svg width="40" height="40" viewBox="0 0 40 40" fill="none" xmlns="http://www.w3.org/2000/svg">
<path d="M20 36.55C11.6 36.55 4.75 29.7167 4.75 21.3V18.1667C4.75 17.5167 5.28333 17 5.91667 17C6.55 17 7.08333 17.5333 7.08333 18.1667V21.3C7.08333 28.4167 12.8667 34.2 19.9833 34.2C27.1 34.2 32.8833 28.4167 32.8833 21.3V18.1667C32.8833 17.5167 33.4167 17 34.05 17C34.6833 17 35.2167 17.5333 35.2167 18.1667V21.3C35.25 29.7167 28.4 36.55 20 36.55Z" fill="#2A5278"/>
<path d="M20 3.3335C14.4 3.3335 9.83337 7.90016 9.83337 13.5002V21.3168C9.83337 26.9168 14.4 31.4835 20 31.4835C25.6 31.4835 30.1667 26.9168 30.1667 21.3168V13.5002C30.1667 7.90016 25.6 3.3335 20 3.3335ZM23.6334 17.6502C23.5167 18.1002 23.1 18.4002 22.65 18.4002C22.5667 18.4002 22.4667 18.3835 22.3834 18.3668C20.6834 17.9002 18.8834 17.9002 17.1834 18.3668C16.6334 18.5168 16.0834 18.2002 15.9334 17.6502C15.7834 17.1168 16.1 16.5502 16.65 16.4002C18.7 15.8335 20.8667 15.8335 22.9167 16.4002C23.4667 16.5502 23.7834 17.1002 23.6334 17.6502ZM25.05 13.0335C24.9 13.4502 24.5167 13.7002 24.1 13.7002C23.9834 13.7002 23.8667 13.6835 23.75 13.6335C21.2 12.7002 18.4 12.7002 15.85 13.6335C15.3167 13.8335 14.7334 13.5668 14.5334 13.0335C14.35 12.5168 14.6167 11.9335 15.15 11.7335C18.15 10.6502 21.45 10.6502 24.4334 11.7335C24.9667 11.9335 25.2334 12.5168 25.05 13.0335Z" fill="#2A5278"/>
</svg>
