<svg width="40" height="40" viewBox="0 0 40 40" fill="none" xmlns="http://www.w3.org/2000/svg">
<path d="M20 31.6663C25.5167 31.6663 30 27.183 30 21.6663V13.333C30 7.81634 25.5167 3.33301 20 3.33301C14.4833 3.33301 10 7.81634 10 13.333V21.6663C10 27.183 14.4833 31.6663 20 31.6663Z" stroke="#2A5278" stroke-width="2.5" stroke-linecap="round" stroke-linejoin="round"/>
<path d="M5 18.333V21.6663C5 29.9497 11.7167 36.6663 20 36.6663C28.2833 36.6663 35 29.9497 35 21.6663V18.333" stroke="#2A5278" stroke-width="2.5" stroke-linecap="round" stroke-linejoin="round"/>
<path d="M15.1833 12.4668C18.15 11.3835 21.3833 11.3835 24.35 12.4668" stroke="#2A5278" stroke-width="2.5" stroke-linecap="round" stroke-linejoin="round"/>
<path d="M16.7167 17.4662C18.7167 16.9162 20.8333 16.9162 22.8333 17.4662" stroke="#2A5278" stroke-width="2.5" stroke-linecap="round" stroke-linejoin="round"/>
</svg>
